<?xml version="1.0" encoding="utf-8"?>
<svg id="master-artboard" viewBox="0 0 1400 980" version="1.1" xmlns="http://www.w3.org/2000/svg" x="0px" y="0px" style="enable-background:new 0 0 1400 980;" width="1400px" height="980px"><defs><linearGradient id="gradient-0" gradientUnits="objectBoundingBox" x1="0.5" y1="0" x2="0.5" y2="1">
                <stop offset="0" style="stop-color: #193318"/>
                <stop offset="1" style="stop-color: #000000"/>
              </linearGradient><radialGradient id="gradient-2" gradientUnits="objectBoundingBox" cx="0.5" cy="0.5" r="0.5">
                <stop offset="0" style="stop-color: #6b99c7"/>
                <stop offset="1" style="stop-color: #386694"/>
              </radialGradient><radialGradient id="gradient-3" gradientUnits="objectBoundingBox" cx="0.5" cy="0.5" r="0.5">
                <stop offset="0" style="stop-color: #6b99c7"/>
                <stop offset="1" style="stop-color: #386694"/>
              </radialGradient><radialGradient id="gradient-1" gradientUnits="objectBoundingBox" cx="0.5" cy="0.5" r="0.5">
                <stop offset="0" style="stop-color: #6b99c7"/>
                <stop offset="1" style="stop-color: #386694"/>
              </radialGradient></defs><g transform="matrix(1, 0, 0, 1, 0, 0)"><rect id="ee-background" x="0" y="0" width="1400" height="980" style="fill: rgb(255, 232, 148); fill-opacity: 0; pointer-events: none;"/><g transform="matrix(3.270893335342407, -1.0400210618972776, 1.0400210618972776, 3.270893335342407, -670.6455078125, 187.82773964349923)"><g id="Layer_2_5_" transform="matrix(1, 0, 0, 1, 0, 0)">
	<g id="Layer_1-2_5_">

		<path class="st0" d="M355.7,185.2c20.2,7.9,30.5,31.1,22.6,51.2c-8,20.1-30.7,29.9-50.8,22c-2.3-0.9-4.4-2.1-6.5-3.4&#10;&#9;&#9;&#9;c11.8,25.2,41.9,36.1,67.1,24.2c11.6-5.4,20.7-15.1,25.4-27c10-25.9-2.9-54.9-28.7-64.9C375.5,183.8,365.4,183,355.7,185.2z" style="fill: rgb(107, 153, 199); fill-opacity: 1;"/>
	</g>
</g></g><g transform="matrix(3.6471838951110844, 0, 0, 3.6471838951110844, -1811.4403076171877, -2152.256809306696)"><g transform="matrix(1, 0, 0, 1, 0, 0)">
		<path class="st7" d="M685,894.8c-62.9-29.4-125.8,16.8-188.7-12.6c0-37.7,0-75.5,0-113.2c62.9,21,125.8-33.6,188.7-12.6&#10;&#9;&#9;&#9;c-16.7,17.6-33.3,39.4-50,62.6C651.7,839.8,668.4,864.1,685,894.8z" style="fill: rgb(107, 153, 199); opacity: 1;"/>
		<path class="st5" d="M590.7,888.6c-31.5,4.2-62.9,8.4-94.4-6.3c0-37.7,0-75.5,0-113.2c31.5,10.5,62.9,2.1,94.4-6.3&#10;&#9;&#9;&#9;C590.7,804.7,590.7,846.6,590.7,888.6z" style="fill: rgb(107, 153, 199); opacity: 1;"/>
	</g></g><g transform="matrix(-2.1089682579040527, -0.12468767911195756, 0.12468767911195756, -2.1089682579040527, 3112.1413574218755, 2045.4487570995539)"><g transform="matrix(1, 0, 0, 1, 0, 0)">
		<path class="st3" d="M951.3,648.2c0-37.7,0-75.5,0-113.2c62.9,39.8,125.8,8.4,188.7,56.6C1077.1,589.5,1014.2,658.7,951.3,648.2z" style="fill: rgb(107, 153, 199); opacity: 1;"/>
	</g></g><g transform="matrix(1.942986845970154, 0, 0, 1.942986845970154, 875.0963134765623, 438.0191306347102)"><g transform="matrix(1, 0, 0, 1, 0, 0)"><path class="st16" d="M88.2,191.1c30.9,0,30.9-18.1,61.7-18.1c30.9,0,30.9,18.1,61.8,18.1s30.9-18.1,61.8-18.1V62.4&#10;&#9;&#9;&#9;&#9;c-30.9,0-30.9,18.1-61.8,18.1S180.9,62.4,150,62.4c-30.9,0-30.9,18.1-61.7,18.1V191.1z" style="fill: rgb(107, 153, 199); opacity: 1;" transform="matrix(1, 0, 0, 1, 0, 0)"/><path class="st17" d="M134.4,64.4c-16.5,4.7-21.6,16.1-46.1,16.1v110.6c24.5,0,29.6-11.4,46.1-16.1V64.4z" style="fill: rgb(107, 153, 199); opacity: 1;" transform="matrix(1, 0, 0, 1, 0, 0)"/><path class="st18" d="M79,223.3h9.2V81.7c0-2.5-2.1-4.6-4.6-4.6l0,0c-2.5,0-4.6,2.1-4.6,4.6V223.3z" style="fill: rgb(107, 153, 199); opacity: 1;" transform="matrix(1, 0, 0, 1, 0, 0)"/></g></g><g transform="matrix(2.0418248176574707, -0.23508560657501215, 0.23508560657501215, 2.0418248176574707, -620.2893676757812, 579.8425559276789)"><g transform="matrix(1, 0, 0, 1, 0.06586172014146996, -0.5720389724150436)"><path class="st34" d="M582.3,84.1c0,42.4,0,84.8,0,127.2c61.7-72.1,123.5,8.5,185.2-63.6C705.8,177.4,644.1,54.4,582.3,84.1z" style="fill: rgb(107, 153, 199); opacity: 1;" transform="matrix(1, 0, 0, 1, 0, 0)"/><path class="st35" d="M628.6,181.1V85.7c-15.4-6.9-30.9-9-46.3-1.6c0,42.4,0,84.8,0,127.2C597.7,193.3,613.2,184.8,628.6,181.1z" style="fill: rgb(107, 153, 199); opacity: 1;" transform="matrix(1, 0, 0, 1, 0, 0)"/><path class="st36" d="M573.1,223.3h9.2V81.7c0-2.5-2.1-4.6-4.6-4.6l0,0c-2.5,0-4.6,2.1-4.6,4.6V223.3z" style="fill: rgb(107, 153, 199); opacity: 1;" transform="matrix(1, 0, 0, 1, 0, 0)"/></g></g><g transform="matrix(-0.9780765175819395, -1.184226393699646, 1.184226393699646, -0.9780765175819395, 812.8267822265623, 1158.299587177679)"><g id="g-5" transform="matrix(1, 0, 0, 1, 0, 0)">
	<g id="g-6">
		<path class="st0" d="M355.7,185.2c20.2,7.9,30.5,31.1,22.6,51.2c-8,20.1-30.7,29.9-50.8,22c-2.3-0.9-4.4-2.1-6.5-3.4&#10;&#9;&#9;&#9;c11.8,25.2,41.9,36.1,67.1,24.2c11.6-5.4,20.7-15.1,25.4-27c10-25.9-2.9-54.9-28.7-64.9C375.5,183.8,365.4,183,355.7,185.2z" style="fill: rgb(107, 153, 199);"/>
	</g>
</g></g><g transform="matrix(7.988086700439454, 0, 0, 7.988086700439454, 177.53890991210938, 272.09075539056954)"><g id="g-9" transform="matrix(1, 0, 0, 1, 0, 0)">
	<g id="g-10">
		<path class="st0" d="M58,49h100v100H58V49z" style="fill: rgb(107, 153, 199);"/>
	</g>
</g></g><g transform="matrix(7.988086700439454, 0, 0, 7.988086700439454, -402.26544189453125, 288.8966941112727)"><g id="g-11" transform="matrix(1, 0, 0, 1, 0, 0)">
	<g id="g-12">
		<path class="st0" d="M58,49h100v100H58V49z" style="fill: rgb(107, 153, 199);"/>
	</g>
</g></g></g></svg>